<svg version="1.1" xmlns="http://www.w3.org/2000/svg" viewBox="0 0 782.5 318" width="782.5" height="318">
  <!-- svg-source:excalidraw -->
  
  <defs>
    <style>
      @font-face {
        font-family: "Virgil";
        src: url("https://excalidraw.com/Virgil.woff2");
      }
      @font-face {
        font-family: "Cascadia";
        src: url("https://excalidraw.com/Cascadia.woff2");
      }
    </style>
  </defs>
  <rect x="0" y="0" width="782.5" height="318" fill="#ffffff"></rect><g stroke-linecap="round" transform="translate(10 10) rotate(0 78.5 75.5)"><path d="M106.78 6.05 C117.13 9.01, 128.41 17.01, 136.25 24.78 C144.09 32.54, 150.58 42.25, 153.84 52.63 C157.11 63.02, 157.49 76.28, 155.84 87.1 C154.19 97.93, 150.15 108.45, 143.94 117.58 C137.74 126.71, 128.46 136.19, 118.63 141.88 C108.8 147.57, 96.58 151.24, 84.94 151.73 C73.29 152.22, 59.28 148.86, 48.76 144.82 C38.23 140.77, 29.33 135.34, 21.78 127.47 C14.23 119.6, 7.06 108.14, 3.44 97.61 C-0.18 87.08, -1.61 74.94, 0.05 64.29 C1.71 53.63, 6.93 42.72, 13.42 33.69 C19.92 24.67, 29.3 15.75, 39.02 10.13 C48.75 4.5, 59.55 0.46, 71.77 -0.06 C84 -0.58, 104.83 5.01, 112.36 7 C119.89 8.98, 117.49 10.75, 116.95 11.86 M69.8 0.55 C80.3 -1.83, 93.7 -0.32, 104.57 3.09 C115.44 6.5, 127.16 13.4, 135.03 20.99 C142.9 28.57, 148.27 38.12, 151.79 48.6 C155.31 59.09, 157.34 72.83, 156.18 83.89 C155.02 94.95, 150.49 105.89, 144.82 114.94 C139.15 124, 131.82 132.17, 122.14 138.2 C112.45 144.24, 98.46 149.83, 86.72 151.15 C74.97 152.47, 62.09 149.79, 51.68 146.15 C41.26 142.51, 32.07 136.79, 24.22 129.31 C16.38 121.84, 8.34 111.35, 4.59 101.31 C0.84 91.27, 0.52 80.19, 1.73 69.07 C2.94 57.95, 6.29 44.09, 11.87 34.6 C17.45 25.1, 25.91 17.59, 35.21 12.09 C44.51 6.59, 62.01 3.37, 67.67 1.61 C73.32 -0.14, 68.53 0.74, 69.14 1.56" stroke="#000000" stroke-width="1" fill="none"></path></g><g stroke-linecap="round" transform="translate(313.5 13.5) rotate(0 78.5 75.5)"><path d="M92.64 1.32 C103.24 2.08, 114.24 7.46, 123.29 13.84 C132.34 20.22, 141.22 29.91, 146.94 39.6 C152.67 49.29, 157.11 61.08, 157.63 71.98 C158.14 82.88, 154.61 95.03, 150.03 104.99 C145.45 114.96, 138.45 124.57, 130.15 131.78 C121.85 138.99, 111.22 145.31, 100.24 148.23 C89.26 151.15, 75.65 151.35, 64.25 149.31 C52.85 147.27, 41.01 142.11, 31.83 135.99 C22.65 129.87, 14.32 122.17, 9.19 112.59 C4.05 103.01, 1.58 89.52, 1.04 78.53 C0.49 67.54, 1.59 56.7, 5.92 46.65 C10.26 36.6, 18.58 25.51, 27.04 18.22 C35.51 10.93, 45.35 5.52, 56.73 2.9 C68.11 0.28, 88.56 2.23, 95.34 2.52 C102.12 2.8, 97.76 3.42, 97.4 4.62 M98.36 2.52 C109.21 3.95, 121.12 10.82, 129.55 17.83 C137.98 24.85, 144.42 34.44, 148.93 44.6 C153.44 54.76, 157 67.75, 156.61 78.79 C156.23 89.84, 152.04 101.51, 146.63 110.88 C141.21 120.25, 132.99 128.4, 124.14 135.01 C115.29 141.63, 104.31 148.57, 93.51 150.57 C82.71 152.58, 70.16 150.16, 59.34 147.04 C48.53 143.92, 37.63 138.83, 28.62 131.84 C19.62 124.85, 9.83 114.68, 5.3 105.12 C0.78 95.56, 0.95 85.21, 1.49 74.47 C2.03 63.74, 3.75 50.64, 8.55 40.71 C13.35 30.78, 21.01 21.53, 30.28 14.89 C39.55 8.26, 52.59 2.76, 64.17 0.89 C75.74 -0.98, 93.86 3.07, 99.71 3.69 C105.55 4.31, 99.74 3.72, 99.23 4.6" stroke="#000000" stroke-width="1" fill="none"></path></g><g stroke-linecap="round" transform="translate(615.5 17.5) rotate(0 78.5 75.5)"><path d="M81.48 0.42 C92.45 -0.04, 105.58 4.77, 115.76 9.75 C125.93 14.73, 136.03 21.58, 142.53 30.3 C149.02 39.03, 152.88 51.23, 154.73 62.11 C156.58 72.99, 156.48 85.26, 153.63 95.58 C150.79 105.89, 145.01 115.74, 137.65 124.01 C130.29 132.28, 119.8 140.55, 109.45 145.19 C99.1 149.84, 86.73 152.27, 75.56 151.86 C64.4 151.45, 52.49 148.04, 42.48 142.73 C32.47 137.43, 22.47 128.91, 15.51 120.03 C8.54 111.15, 2.95 100.03, 0.7 89.44 C-1.54 78.86, -1.19 67.13, 2.03 56.51 C5.26 45.88, 12.36 34.05, 20.05 25.7 C27.74 17.35, 35.75 10.45, 48.17 6.4 C60.59 2.35, 85.12 1.53, 94.56 1.39 C104 1.24, 105.25 4.42, 104.8 5.53 M86.13 1.16 C96.96 1.16, 109.2 5.76, 119.06 11.33 C128.91 16.9, 139.21 25.4, 145.26 34.57 C151.31 43.74, 154.26 55.6, 155.36 66.34 C156.46 77.08, 155.49 88.75, 151.86 99.02 C148.23 109.29, 141.4 119.95, 133.57 127.97 C125.73 136, 115.3 143.64, 104.86 147.17 C94.42 150.71, 82.23 150.18, 70.92 149.19 C59.6 148.19, 46.81 146.56, 36.99 141.2 C27.16 135.85, 17.88 126.57, 11.95 117.04 C6.03 107.51, 2.97 94.88, 1.44 84.05 C-0.09 73.21, -0.8 62.15, 2.78 52.04 C6.36 41.92, 14.97 31.12, 22.93 23.35 C30.88 15.58, 39.84 9.16, 50.53 5.41 C61.21 1.67, 81.05 1.33, 87.05 0.88 C93.05 0.44, 86.71 1.68, 86.52 2.76" stroke="#000000" stroke-width="1" fill="none"></path></g><g transform="translate(15 73) rotate(0 73.5 12.5)"><text x="73.5" y="18" font-family="Virgil, Segoe UI Emoji" font-size="20px" fill="#000000" text-anchor="middle" style="white-space: pre;" direction="ltr">A</text></g><g transform="translate(318.5 76.5) rotate(0 73.5 12.5)"><text x="73.5" y="18" font-family="Virgil, Segoe UI Emoji" font-size="20px" fill="#000000" text-anchor="middle" style="white-space: pre;" direction="ltr">B</text></g><g transform="translate(620.5 80.5) rotate(0 73.5 12.5)"><text x="73.5" y="18" font-family="Virgil, Segoe UI Emoji" font-size="20px" fill="#000000" text-anchor="middle" style="white-space: pre;" direction="ltr">C</text></g><g stroke-linecap="round"><g transform="translate(180 87) rotate(0 65.18816505260764 1.4216736497543536)"><path d="M-0.72 0.84 C21.28 1.23, 109.41 1.12, 131.1 1.39 M1.1 0.23 C23.12 0.86, 109.53 2.59, 130.73 2.61" stroke="#000000" stroke-width="1" fill="none"></path></g><g transform="translate(180 87) rotate(0 65.18816505260764 1.4216736497543536)"><path d="M103.82 14.36 C107.77 9.48, 115.81 8.88, 130.5 1.07 M101.97 11.58 C109.84 9.73, 117.44 7.65, 130.92 2.92" stroke="#000000" stroke-width="1" fill="none"></path></g><g transform="translate(180 87) rotate(0 65.18816505260764 1.4216736497543536)"><path d="M104.07 -6.16 C107.8 -6.48, 115.78 -2.53, 130.5 1.07 M102.22 -8.94 C109.86 -5.47, 117.41 -2.23, 130.92 2.92" stroke="#000000" stroke-width="1" fill="none"></path></g></g><g stroke-linecap="round"><g transform="translate(478.98350955869466 92.32118054714692) rotate(0 65.72597494654542 1.0901291537126951)"><path d="M0.09 0.5 C22.14 0.92, 110.64 1.07, 132.78 1.45 M-1.33 -0.29 C20.6 0.35, 109.92 2.32, 132.25 2.47" stroke="#000000" stroke-width="1" fill="none"></path></g><g transform="translate(478.98350955869466 92.32118054714692) rotate(0 65.72597494654542 1.0901291537126951)"><path d="M104.73 13.61 C111.91 10.5, 123.7 3.94, 132.82 4.33 M103.84 13.03 C110.96 10.54, 118.74 8.37, 132.32 1.98" stroke="#000000" stroke-width="1" fill="none"></path></g><g transform="translate(478.98350955869466 92.32118054714692) rotate(0 65.72597494654542 1.0901291537126951)"><path d="M105.05 -6.9 C111.93 -3.09, 123.61 -2.73, 132.82 4.33 M104.16 -7.49 C111.39 -4.78, 119.09 -1.75, 132.32 1.98" stroke="#000000" stroke-width="1" fill="none"></path></g></g><g transform="translate(231 39) rotate(0 22.5 12.5)"><text x="0" y="18" font-family="Virgil, Segoe UI Emoji" font-size="20px" fill="#000000" text-anchor="start" style="white-space: pre;" direction="ltr">£20</text></g><g transform="translate(521.5 40.5) rotate(0 22.5 12.5)"><text x="0" y="18" font-family="Virgil, Segoe UI Emoji" font-size="20px" fill="#000000" text-anchor="start" style="white-space: pre;" direction="ltr">£20</text></g><g stroke-linecap="round"><g transform="translate(279 27) rotate(0 -26.532676774933975 23.174417384341353)"><path d="M-0.77 -0.92 C-9.64 6.87, -44.54 39.37, -53.44 47.27 M1.02 1.21 C-7.93 8.57, -44.75 37.57, -54.09 45.29" stroke="#000000" stroke-width="1" fill="none"></path></g></g><g stroke-linecap="round"><g transform="translate(575 33) rotate(0 -29.57211175074798 20.704728406881912)"><path d="M-0.7 0.35 C-10.57 7.4, -49.77 35.16, -59.56 41.92 M1.13 -0.51 C-8.83 6.25, -50.1 33.17, -60.27 40.27" stroke="#000000" stroke-width="1" fill="none"></path></g></g><g stroke-linecap="round"><g transform="translate(118 185) rotate(0 278.65476496405904 33.641959207496996)"><path d="M-0.34 -0.05 C43.66 11.53, 171.16 66.31, 264.16 68.35 C357.16 70.39, 508.57 21.34, 557.65 12.17 M1.68 -1.13 C45.62 10.22, 171.31 64.31, 263.82 66.67 C356.32 69.04, 507.47 21.73, 556.7 13.06" stroke="#000000" stroke-width="1" fill="none"></path></g><g transform="translate(118 185) rotate(0 278.65476496405904 33.641959207496996)"><path d="M531.52 31.42 C540.96 23.88, 545.95 20.41, 557.3 12.96 M531.18 28.84 C539.23 23.88, 546.81 19.61, 557.61 12.39" stroke="#000000" stroke-width="1" fill="none"></path></g><g transform="translate(118 185) rotate(0 278.65476496405904 33.641959207496996)"><path d="M526.82 11.44 C537.54 10.12, 543.98 12.84, 557.3 12.96 M526.49 8.86 C536.08 9.75, 545.04 11.37, 557.61 12.39" stroke="#000000" stroke-width="1" fill="none"></path></g></g><g transform="translate(375 283) rotate(0 22.5 12.5)"><text x="0" y="18" font-family="Virgil, Segoe UI Emoji" font-size="20px" fill="#000000" text-anchor="start" style="white-space: pre;" direction="ltr">£20</text></g></svg>